<svg xmlns="http://www.w3.org/2000/svg" height="300" width="300" viewBox="0 0 100 100" fill-rule="evenodd" clip-rule="evenodd" stroke-linejoin="round" stroke-miterlimit="1.414"><circle cx="50" cy="50" r="48.333" fill="#0082c9"/><g stroke-width="1.37" fill="#fff"><path d="M37.03 19.67a16.436 16.436 0 0 0-3.867 0l-.616 3.521c-1.007.201-1.988.52-2.921.95-.857-.828-1.713-1.658-2.569-2.488a16.465 16.465 0 0 0-3.128 2.274c.525 1.069 1.05 2.14 1.572 3.21a13.071 13.071 0 0 0-1.805 2.485c-1.18-.166-2.36-.333-3.54-.502a16.448 16.448 0 0 0-1.195 3.678c1.054.557 2.107 1.115 3.16 1.674a13.065 13.065 0 0 0 0 3.071c-1.053.56-2.106 1.117-3.16 1.674a16.453 16.453 0 0 0 1.195 3.678c1.18-.169 2.36-.336 3.54-.503a13.071 13.071 0 0 0 1.805 2.485c-.523 1.07-1.047 2.141-1.572 3.21a16.449 16.449 0 0 0 3.128 2.274 2039.69 2039.69 0 0 1 2.569-2.487 13.065 13.065 0 0 0 2.921.949l.616 3.521c1.284.153 2.582.153 3.867 0 .204-1.174.408-2.347.615-3.521a13.067 13.067 0 0 0 2.922-.95l2.568 2.488a16.437 16.437 0 0 0 3.129-2.273c-.526-1.07-1.05-2.14-1.573-3.211a13.071 13.071 0 0 0 1.806-2.485c1.18.166 2.36.334 3.54.504a16.47 16.47 0 0 0 1.195-3.679c-1.054-.557-2.107-1.115-3.16-1.674.121-1.02.121-2.051 0-3.071 1.053-.56 2.106-1.117 3.16-1.674a16.43 16.43 0 0 0-1.195-3.678c-1.18.169-2.36.336-3.54.502a13.071 13.071 0 0 0-1.806-2.485c.524-1.07 1.047-2.141 1.573-3.21a16.453 16.453 0 0 0-3.13-2.274 1481.055 1481.055 0 0 1-2.567 2.488 13.067 13.067 0 0 0-2.922-.949 2725.2 2725.2 0 0 1-.615-3.522zm-1.934 9.649a6.693 6.693 0 0 1 6.69 6.689 6.693 6.693 0 0 1-6.69 6.69 6.693 6.693 0 0 1-6.69-6.69 6.693 6.693 0 0 1 6.69-6.69z"/><path d="M35.226 18.441c.603.007 1.206.042 1.807.107l.952.11.45 2.58.18 1.031.365.098a15.991 15.991 0 0 1 1.188.396l.096.038.06.023.751-.727 1.882-1.825c.316.179.633.356.948.537a18.258 18.258 0 0 1 1.516.987 18.24 18.24 0 0 1 1.504 1.224l.707.65-1.154 2.352-.46.94a12.944 12.944 0 0 1 .49.625c.165.225.323.453.476.686l.056.088.034.054 1.036-.147 2.594-.37c.15.33.303.66.452.99.243.554.46 1.117.647 1.69.2.616.364 1.242.497 1.875l.19.94-2.316 1.226-.924.49.019.377c.004.139.007.277.009.417 0 .279-.006.557-.019.835l-.005.104-.004.063.924.49 2.316 1.226c-.071.356-.142.712-.217 1.067a18.31 18.31 0 0 1-.47 1.748 18.215 18.215 0 0 1-.7 1.808l-.399.873-2.594-.37-1.036-.146a15.903 15.903 0 0 1-.444.658c-.163.226-.33.447-.505.664l-.066.08-.04.05.46.94 1.153 2.353c-.267.245-.533.492-.803.735a18.148 18.148 0 0 1-1.512 1.213c-.491.352-1 .676-1.524.976l-.836.473-1.882-1.825-.752-.727a16.827 16.827 0 0 1-.746.271c-.264.088-.53.168-.799.241l-.1.026-.062.016-.181 1.03-.45 2.583c-.36.041-.72.084-1.082.123-.644.064-1.289.097-1.936.093a18.234 18.234 0 0 1-1.807-.107l-.953-.11-.45-2.582-.18-1.03a17.574 17.574 0 0 1-.364-.098 18.434 18.434 0 0 1-.4-.12 16.442 16.442 0 0 1-.788-.275l-.098-.038-.058-.023-.752.727-1.881 1.825c-.317-.18-.633-.356-.948-.537a18.08 18.08 0 0 1-1.621-1.063 18.265 18.265 0 0 1-1.4-1.149l-.707-.648 1.154-2.354.46-.94a16.398 16.398 0 0 1-.49-.625 15.966 15.966 0 0 1-.475-.686l-.057-.088-.034-.053-1.036.146-2.594.37c-.151-.33-.303-.659-.451-.99a18.151 18.151 0 0 1-.687-1.813 18.325 18.325 0 0 1-.457-1.752l-.19-.94 2.315-1.226.925-.49a16.012 16.012 0 0 1-.029-.794c0-.278.005-.556.02-.834l.005-.104.004-.064-.925-.49-2.316-1.225c.072-.356.142-.712.218-1.067a18.105 18.105 0 0 1 .51-1.871 18.046 18.046 0 0 1 .66-1.686l.398-.872 2.594.37 1.036.146a16.623 16.623 0 0 1 .443-.658c.164-.226.332-.447.506-.665l.066-.08.04-.049-.46-.94-1.153-2.353c.268-.245.533-.492.803-.736.484-.43.986-.837 1.512-1.213a18.268 18.268 0 0 1 1.525-.976l.836-.472 1.88 1.825.753.727a19.4 19.4 0 0 1 .746-.272c.264-.087.53-.167.8-.241l.1-.026.061-.016.18-1.03.451-2.583c.36-.04.72-.083 1.082-.122a19.203 19.203 0 0 1 1.937-.093zM24.756 42c.207.355.43.7.671 1.032.241.333.501.65.774.958l.06.065.576.629-1.12 2.29-.41.838a16.755 16.755 0 0 0 1.426 1.051l.094.06.068.043.67-.65 1.832-1.773c.312.143.623.288.937.426.377.162.761.308 1.153.432s.789.226 1.192.31l.836.17c.2 1.143.401 2.287.6 3.431.138.01.277.016.417.022.451.014.902.011 1.354-.01l.113-.007.079-.005.16-.92.44-2.51c.336-.07.673-.134 1.008-.207a12.32 12.32 0 0 0 1.187-.329 12.285 12.285 0 0 0 1.146-.448l.776-.355c.835.807 1.67 1.615 2.503 2.423a16.487 16.487 0 0 0 1.44-1.032l.087-.071.061-.051-.41-.838-1.12-2.29c.23-.254.465-.504.693-.76.271-.308.528-.629.768-.963.239-.335.459-.68.663-1.037l.42-.743 3.448.49.15-.39c.153-.426.29-.856.409-1.292l.029-.109.019-.077-.825-.437-2.252-1.193c.04-.341.08-.682.115-1.023.037-.409.057-.82.054-1.23a12.429 12.429 0 0 0-.072-1.23l-.097-.846c1.025-.545 2.051-1.09 3.077-1.632a19.107 19.107 0 0 0-.109-.404 16.668 16.668 0 0 0-.428-1.285l-.04-.105-.03-.073-.924.132-2.524.357c-.17-.299-.335-.599-.508-.895a12.402 12.402 0 0 0-.679-1.027 12.435 12.435 0 0 0-.781-.952l-.577-.628 1.531-3.13a19.8 19.8 0 0 0-.325-.262 16.849 16.849 0 0 0-1.102-.787l-.095-.061-.066-.043-.671.65-1.832 1.773c-.312-.143-.623-.288-.937-.426a12.471 12.471 0 0 0-1.153-.432 12.381 12.381 0 0 0-1.19-.31l-.837-.17c-.2-1.144-.401-2.287-.6-3.431a19.732 19.732 0 0 0-.418-.021 16.883 16.883 0 0 0-1.353.01l-.114.006-.078.005-.161.92-.44 2.511c-.336.068-.673.133-1.008.206-.4.09-.796.2-1.187.329-.39.13-.771.28-1.146.448l-.777.355-2.501-2.423a16.74 16.74 0 0 0-1.44 1.032l-.088.071-.06.051.41.839 1.12 2.29c-.232.252-.466.503-.694.759a12.396 12.396 0 0 0-.767.964 12.432 12.432 0 0 0-.664 1.036l-.42.743c-1.149-.163-2.299-.325-3.448-.49-.051.13-.1.26-.149.391a16.667 16.667 0 0 0-.409 1.29l-.029.11-.02.077.825.436 2.253 1.195c-.04.34-.08.68-.115 1.022-.038.41-.058.82-.055 1.23.003.412.03.821.073 1.23l.097.847-3.078 1.631a16.668 16.668 0 0 0 .537 1.688l.041.105.03.075.924-.132 2.524-.358c.154.274.306.548.463.82zm10.44-13.797a7.764 7.764 0 0 1 3.198.73 7.839 7.839 0 0 1 3.694 3.606 7.71 7.71 0 0 1 .69 2.089 7.787 7.787 0 0 1-2.298 7.028 7.833 7.833 0 0 1-2.434 1.579 7.81 7.81 0 0 1-8.333-1.578 7.839 7.839 0 0 1-1.65-2.265 7.767 7.767 0 0 1-.695-2.294 7.86 7.86 0 0 1 .046-2.47 7.776 7.776 0 0 1 2.231-4.203 7.84 7.84 0 0 1 2.154-1.492 7.762 7.762 0 0 1 3.197-.729h.201zm-.172 2.231a5.525 5.525 0 0 0-2.281.52 5.628 5.628 0 0 0-2.58 2.458 5.537 5.537 0 0 0-.528 1.472 5.626 5.626 0 0 0-.058 1.904c.079.566.246 1.119.495 1.635a5.607 5.607 0 0 0 2.92 2.747 5.574 5.574 0 0 0 2.104.412 5.57 5.57 0 0 0 2.106-.412 5.599 5.599 0 0 0 2.92-2.748 5.529 5.529 0 0 0 .494-1.634 5.552 5.552 0 0 0-.618-3.436 5.63 5.63 0 0 0-2.548-2.398 5.53 5.53 0 0 0-2.282-.52z" fill-rule="nonzero"/><path d="M65.14 43.735a18.401 18.401 0 0 0-4.33 0c-.229 1.315-.458 2.629-.69 3.943a14.645 14.645 0 0 0-3.27 1.063 1821.054 1821.054 0 0 1-2.875-2.785 18.433 18.433 0 0 0-3.503 2.545c.588 1.197 1.175 2.396 1.76 3.595a14.634 14.634 0 0 0-2.021 2.782c-1.321-.186-2.643-.374-3.963-.563a18.414 18.414 0 0 0-1.338 4.118c1.18.623 2.358 1.248 3.537 1.874a14.626 14.626 0 0 0 0 3.438c-1.178.627-2.358 1.25-3.537 1.874a18.42 18.42 0 0 0 1.338 4.118c1.321-.19 2.642-.376 3.963-.563a14.662 14.662 0 0 0 2.021 2.782c-.585 1.2-1.172 2.397-1.76 3.595a18.416 18.416 0 0 0 3.503 2.545c.958-.93 1.916-1.857 2.875-2.785 1.045.482 2.142.838 3.27 1.063.232 1.314.461 2.628.69 3.943 1.438.17 2.891.17 4.33 0 .228-1.314.458-2.628.688-3.943A14.63 14.63 0 0 0 69.1 75.31c.96.927 1.918 1.856 2.875 2.785a18.403 18.403 0 0 0 3.504-2.545c-.588-1.197-1.175-2.396-1.76-3.594a14.634 14.634 0 0 0 2.021-2.783c1.322.187 2.642.374 3.963.563a18.401 18.401 0 0 0 1.338-4.117c-1.18-.624-2.359-1.248-3.538-1.875a14.626 14.626 0 0 0 0-3.438 1925.886 1925.886 0 0 1 3.538-1.874 18.394 18.394 0 0 0-1.338-4.118c-1.321.19-2.642.377-3.963.563a14.634 14.634 0 0 0-2.022-2.782c.586-1.2 1.173-2.397 1.761-3.595a18.42 18.42 0 0 0-3.504-2.545 1658.138 1658.138 0 0 1-2.875 2.785 14.63 14.63 0 0 0-3.27-1.063l-.69-3.942zm-2.165 9.983c4.584 0 8.307 3.723 8.307 8.308s-3.723 8.308-8.307 8.308c-4.585 0-8.308-3.723-8.308-8.308s3.723-8.308 8.308-8.308z"/><path d="M57.091 47.423a16.739 16.739 0 0 1 .689-.26c.438-.15.882-.284 1.331-.4l.04-.01.703-4.031c.37-.042.74-.086 1.111-.126a20.257 20.257 0 0 1 2.01-.103c.719 0 1.437.042 2.153.119l.967.11.487 2.793.217 1.239a14.708 14.708 0 0 1 .71.195 17.105 17.105 0 0 1 1.311.458l.038.015 2.938-2.847c.325.183.65.365.974.55.62.364 1.223.756 1.803 1.183.54.398 1.057.826 1.555 1.277l.718.658-1.248 2.545-.553 1.13a15.28 15.28 0 0 1 .46.575c.279.37.543.75.791 1.142l.022.034c1.35-.19 2.701-.383 4.052-.576.154.34.31.678.463 1.017.289.66.546 1.331.763 2.017.203.64.37 1.29.508 1.947l.194.954-2.506 1.326-1.11.59a17.375 17.375 0 0 1 .033.734 17.112 17.112 0 0 1-.03 1.39l-.004.04c1.205.64 2.41 1.278 3.617 1.915-.074.365-.146.731-.224 1.095a20.09 20.09 0 0 1-.567 2.081 20.01 20.01 0 0 1-.733 1.874l-.405.886-2.806-.399-1.245-.177a16.865 16.865 0 0 1-.405.614 17.086 17.086 0 0 1-.842 1.107l-.026.03c.6 1.227 1.2 2.45 1.801 3.676-.275.251-.548.505-.825.755a20.275 20.275 0 0 1-1.681 1.35 20.244 20.244 0 0 1-1.696 1.084l-.847.479-2.036-1.973-.903-.874a18.186 18.186 0 0 1-.69.258 17.214 17.214 0 0 1-1.33.4l-.04.01-.703 4.032c-.37.042-.74.086-1.11.126-.716.072-1.435.108-2.154.103a20.25 20.25 0 0 1-2.01-.118l-.967-.111-.486-2.793-.218-1.238a19.254 19.254 0 0 1-.375-.099 17.053 17.053 0 0 1-1.646-.555l-.038-.015c-.98.947-1.959 1.898-2.939 2.847-.324-.183-.65-.365-.972-.55a20.201 20.201 0 0 1-1.803-1.183 20.258 20.258 0 0 1-1.556-1.277l-.717-.658 1.248-2.545.552-1.13a18.975 18.975 0 0 1-.46-.575 17.076 17.076 0 0 1-.791-1.142l-.022-.035-4.052.577c-.154-.34-.31-.677-.463-1.018a20.508 20.508 0 0 1-.719-1.88 20.1 20.1 0 0 1-.552-2.083l-.193-.955 2.505-1.326 1.11-.589a17.372 17.372 0 0 1-.033-.735c-.008-.463.001-.926.03-1.39l.004-.04-3.616-1.915c.073-.365.146-.73.222-1.095.143-.656.315-1.305.523-1.943.223-.685.484-1.354.778-2.011l.405-.886 2.806.4 1.245.176a16.865 16.865 0 0 1 .405-.614c.266-.38.546-.749.841-1.107l.027-.03-1.8-3.675c.274-.252.547-.505.824-.755a20.23 20.23 0 0 1 1.565-1.265c.582-.424 1.188-.81 1.812-1.17l.847-.479 2.94 2.848zm.407 26.957a13.958 13.958 0 0 0 1.3.498c.443.144.89.263 1.345.361l.097.022.848.171.477 2.721.197 1.134a18.505 18.505 0 0 0 2.358.004l.067-.004.197-1.134.477-2.72c.316-.065.63-.127.945-.194.13-.027.259-.058.388-.089a14.18 14.18 0 0 0 1.146-.335 14.053 14.053 0 0 0 1.11-.435l.091-.04.787-.36 1.986 1.922.825.8c.128-.078.253-.16.379-.242a18.608 18.608 0 0 0 1.531-1.139l.051-.044-.506-1.033-1.213-2.482c.217-.236.435-.472.651-.71a13.998 13.998 0 0 0 .991-1.244c.23-.326.442-.662.643-1.006l.05-.086.425-.752 2.736.387 1.139.162a18.752 18.752 0 0 0 .733-2.241l.016-.065-1.017-.538-2.44-1.295c.036-.319.074-.638.109-.958a14.163 14.163 0 0 0 .07-1.59 14.153 14.153 0 0 0-.07-1.19l-.011-.1-.099-.859 2.44-1.294 1.018-.538a17.193 17.193 0 0 0-.724-2.243l-.025-.062-1.14.162-2.735.387c-.158-.28-.314-.56-.474-.84a14.228 14.228 0 0 0-.877-1.326 14.309 14.309 0 0 0-.758-.923l-.067-.073-.584-.637 1.213-2.483.507-1.033a18.398 18.398 0 0 0-1.905-1.389l-.056-.036-.827.801-1.986 1.922c-.292-.134-.584-.269-.876-.4a14.073 14.073 0 0 0-1.49-.558 14.367 14.367 0 0 0-1.155-.302l-.097-.02-.847-.172-.478-2.721-.197-1.133a20.203 20.203 0 0 0-.449-.026 18.611 18.611 0 0 0-1.909.02l-.067.006-.197 1.133-.477 2.721c-.314.064-.63.126-.945.192a13.95 13.95 0 0 0-1.533.425 14.126 14.126 0 0 0-1.112.435l-.09.04-.787.36-1.985-1.922-.826-.8c-.127.08-.253.16-.378.242a18.54 18.54 0 0 0-1.532 1.14l-.052.042.506 1.033 1.214 2.483c-.216.236-.435.472-.65.71a14.11 14.11 0 0 0-.991 1.245c-.23.325-.444.661-.644 1.005l-.05.086-.426.753-2.735-.387-1.139-.162a18.332 18.332 0 0 0-.733 2.24l-.016.066 1.017.537 2.44 1.294c-.036.32-.075.64-.108.959a13.996 13.996 0 0 0-.07 1.59c.006.397.03.794.07 1.19l.01.1.099.858-2.44 1.295-1.018.538c.037.146.075.29.114.434.173.613.376 1.217.61 1.81l.025.062 1.139-.163 2.735-.387c.159.28.315.56.475.84a14.136 14.136 0 0 0 .877 1.327c.24.318.493.625.758.922l.067.074.584.637-1.214 2.482-.506 1.032c.115.097.231.191.348.285a18.528 18.528 0 0 0 1.557 1.105l.057.035.825-.8 1.986-1.921c.292.133.584.269.877.4zm5.598-21.777a9.384 9.384 0 0 1 6.46 2.682 9.47 9.47 0 0 1 1.862 2.554c.394.795.676 1.646.832 2.521.176.983.195 1.993.056 2.982a9.374 9.374 0 0 1-.84 2.768 9.461 9.461 0 0 1-4.93 4.642 9.432 9.432 0 0 1-7.122 0 9.457 9.457 0 0 1-4.932-4.642 9.387 9.387 0 0 1-.84-2.768 9.516 9.516 0 0 1 .056-2.982 9.399 9.399 0 0 1 .834-2.521 9.462 9.462 0 0 1 4.461-4.354 9.38 9.38 0 0 1 3.86-.882zm-.215 2.231a7.151 7.151 0 0 0-2.944.672 7.267 7.267 0 0 0-3.368 3.248 7.159 7.159 0 0 0-.658 1.91 7.262 7.262 0 0 0-.058 2.369c.102.73.318 1.444.638 2.11a7.242 7.242 0 0 0 3.767 3.544 7.19 7.19 0 0 0 2.716.531 7.192 7.192 0 0 0 2.717-.531 7.223 7.223 0 0 0 3.767-3.545c.32-.665.537-1.379.639-2.11a7.25 7.25 0 0 0-.058-2.368 7.143 7.143 0 0 0-.658-1.91 7.269 7.269 0 0 0-3.37-3.249 7.156 7.156 0 0 0-2.944-.671h-.186z" fill-rule="nonzero"/><path d="M32.687 55.928a9.484 9.484 0 0 0-2.232 0L30.1 57.96c-.582.117-1.147.3-1.686.548l-1.482-1.435a9.533 9.533 0 0 0-1.805 1.312l.908 1.852a7.542 7.542 0 0 0-1.042 1.434c-.681-.095-1.362-.193-2.043-.29a9.49 9.49 0 0 0-.69 2.123c.609.32 1.217.643 1.823.965a7.538 7.538 0 0 0 0 1.773l-1.823.966a9.53 9.53 0 0 0 .69 2.122c.68-.098 1.362-.194 2.043-.29.289.517.639.998 1.042 1.433l-.908 1.853a9.492 9.492 0 0 0 1.806 1.312c.493-.48.987-.958 1.482-1.435a7.548 7.548 0 0 0 1.685.547c.12.678.237 1.354.355 2.032.742.088 1.49.088 2.232 0 .117-.678.235-1.354.354-2.032a7.566 7.566 0 0 0 1.687-.547c.494.477.988.956 1.481 1.435a9.515 9.515 0 0 0 1.805-1.312c-.303-.617-.606-1.235-.907-1.853a7.542 7.542 0 0 0 1.042-1.434l2.042.29a9.483 9.483 0 0 0 .69-2.121l-1.823-.966c.07-.59.07-1.184 0-1.773l1.823-.965a9.48 9.48 0 0 0-.69-2.123c-.68.097-1.361.195-2.042.29a7.542 7.542 0 0 0-1.042-1.434l.907-1.852a9.494 9.494 0 0 0-1.805-1.312c-.493.48-.987.958-1.482 1.436a7.54 7.54 0 0 0-1.686-.548l-.354-2.032zM31.57 60.48a4.878 4.878 0 0 1 4.875 4.876 4.878 4.878 0 0 1-4.875 4.875 4.878 4.878 0 0 1-4.876-4.876 4.878 4.878 0 0 1 4.876-4.875z"/><path d="M28.669 57.202c.113-.04.113-.04.227-.077l.122-.04.109-.032.053-.3.32-1.84.98-.11c.363-.034.726-.055 1.091-.055s.728.021 1.092.056l.979.109.32 1.84.053.3c.116.035.115.035.23.072l.121.039.108.038.219-.212 1.34-1.3.857.488c.314.184.62.38.916.595.295.215.576.446.85.687l.728.664-.822 1.678-.134.273.145.193.074.104.065.093.302-.042 1.849-.264.406.897c.145.336.277.674.39 1.021.114.348.205.7.284 1.056l.2.965-1.652.874-.269.142.004.24-.001.129-.003.114.27.143 1.65.873-.199.965c-.08.356-.17.708-.284 1.055-.112.347-.245.687-.39 1.021l-.406.898-1.85-.264-.301-.043c-.069.1-.069.1-.14.197l-.075.103-.069.09.134.275.822 1.677-.728.664c-.274.24-.555.472-.85.686a11.345 11.345 0 0 1-.916.597l-.856.487-1.341-1.3-.22-.212c-.113.04-.113.04-.228.078l-.12.038-.11.033-.053.3-.32 1.84-.98.109a11.37 11.37 0 0 1-1.09.056c-.366 0-.73-.021-1.092-.056l-.98-.108-.321-1.84-.052-.3-.23-.072-.122-.04-.107-.038-.22.211-1.34 1.301-.857-.487c-.313-.186-.62-.382-.916-.597a11.442 11.442 0 0 1-.85-.686l-.728-.664.823-1.677.133-.274c-.073-.096-.073-.096-.144-.194l-.074-.103-.066-.094-.3.043-1.85.263-.406-.897a11.566 11.566 0 0 1-.39-1.02c-.113-.347-.205-.7-.285-1.056l-.2-.965 1.652-.873.27-.143c-.003-.12-.003-.12-.004-.241v-.128l.004-.114-.27-.142L21 64.098l.2-.965c.078-.357.17-.708.283-1.056.113-.347.245-.686.39-1.02l.407-.898 1.85.264.301.042c.069-.1.069-.1.139-.197l.076-.102.068-.09-.133-.274-.823-1.678.729-.664a11.8 11.8 0 0 1 .85-.687c.295-.214.602-.41.915-.595l.857-.488 1.56 1.512zM26.06 68.658c.098.162.201.32.312.473a6.935 6.935 0 0 0 .416.515l.58.637-.786 1.607-.07.143c.077.059.155.115.233.172l.037.024.114-.11 1.286-1.245.785.355.174.073c.175.07.353.135.534.192.181.055.364.102.549.143l.842.174.31 1.763.027.156c.097.003.193.003.29.002l.044-.002.027-.156.31-1.763.842-.174c.092-.02.092-.02.184-.043a6.82 6.82 0 0 0 .545-.159 7.008 7.008 0 0 0 .528-.206l.785-.355 1.286 1.245.114.11c.08-.055.157-.112.235-.17l.035-.026-.07-.143-.787-1.607.58-.637c.063-.07.062-.07.124-.142a6.814 6.814 0 0 0 .653-.927l.426-.748 1.772.25.158.023c.032-.091.061-.183.09-.275l.013-.042-.14-.074-1.582-.84.095-.855.017-.188c.012-.19.019-.377.016-.567a6.981 6.981 0 0 0-.033-.567l-.095-.855 1.581-.84.14-.073c-.027-.093-.058-.185-.088-.276l-.014-.041-.158.021-1.772.252-.426-.748-.097-.162a6.93 6.93 0 0 0-.32-.469 7.089 7.089 0 0 0-.36-.438l-.58-.636.787-1.609.07-.143c-.078-.058-.156-.114-.234-.17l-.036-.025-.114.11-1.286 1.245-.785-.354-.174-.075a7.016 7.016 0 0 0-.534-.191 6.969 6.969 0 0 0-.55-.143l-.842-.174-.309-1.763-.027-.157a9.414 9.414 0 0 0-.29 0h-.044l-.027.157-.31 1.763-.842.174c-.093.02-.092.02-.185.042a7.487 7.487 0 0 0-.544.16 6.937 6.937 0 0 0-.528.207l-.785.354-1.286-1.244-.114-.111c-.08.054-.158.112-.235.169l-.035.026.07.143.786 1.609-.58.636-.124.143a6.87 6.87 0 0 0-.653.926l-.426.748-1.771-.25-.158-.023c-.032.09-.061.183-.09.275l-.013.042.14.075 1.581.838-.094.855-.017.189a6.993 6.993 0 0 0-.016.567c.002.19.014.378.033.566l.094.856-1.58.839-.141.074c.028.092.058.184.088.276l.015.041.158-.022 1.771-.251c.158.277.313.555.475.83zm5.587-9.293a5.961 5.961 0 0 1 2.454.56 6.042 6.042 0 0 1 2.836 2.767 5.964 5.964 0 0 1 .53 1.604c.112.625.124 1.268.036 1.895a5.972 5.972 0 0 1-1.8 3.5 6.02 6.02 0 0 1-1.869 1.212 6 6 0 0 1-4.528 0 6.016 6.016 0 0 1-3.136-2.95 5.964 5.964 0 0 1-.533-1.762 5.964 5.964 0 0 1 .566-3.499 6.042 6.042 0 0 1 2.835-2.767 5.964 5.964 0 0 1 2.455-.56zm-.126 2.23a3.797 3.797 0 0 0-1.539.35 3.8 3.8 0 0 0-1.698 1.58 3.738 3.738 0 0 0-.445 2.31 3.74 3.74 0 0 0 1.072 2.179 3.748 3.748 0 0 0 2.561 1.1 3.77 3.77 0 0 0 1.433-.242 3.774 3.774 0 0 0 2.374-2.897 3.795 3.795 0 0 0 0-1.24 3.728 3.728 0 0 0-.32-1.008 3.802 3.802 0 0 0-1.678-1.721 3.796 3.796 0 0 0-1.76-.41z" fill-rule="nonzero"/></g></svg>