<svg xmlns="http://www.w3.org/2000/svg" height="300" width="300" viewBox="0 0 24 24"><circle cx="12" cy="12" r="11.6" fill="#0082c9"/><g stroke-width="1.2" fill="#fff"><path d="M16.232 7.37a4.097 4.097 0 0 0-2.755-1.192 1.659 1.659 0 0 0-1.441-.845 1.66 1.66 0 0 0-1.441.844 4.1 4.1 0 0 0-2.827 1.195 4.17 4.17 0 0 0 0 5.892l1.179-1.178a2.485 2.485 0 0 1-.733-1.768c0-.668.261-1.296.733-1.767.448-.449 1.056-.666 1.67-.688.291.48.815.804 1.419.804.611 0 1.14-.333 1.43-.825.579.041 1.146.265 1.587.708.472.472.733 1.1.733 1.768 0 .668-.261 1.296-.733 1.768l1.179 1.178a4.172 4.172 0 0 0 0-5.893zM12.867 4.648V2h-1.666v2.672c.276-.104.566-.172.869-.172.277 0 .542.06.797.148z"/><path d="M15.74 14.587l-3.333-1.666a.835.835 0 0 0-.745 0l-3.334 1.666a.834.834 0 0 0-.46.746V19.5c0 .316.178.604.46.746l3.334 1.666a.835.835 0 0 0 .745 0l3.333-1.666a.834.834 0 0 0 .46-.746v-4.167a.834.834 0 0 0-.46-.746zm-4.123 6.371L8.701 19.5v-3.7l2.916 1.457zm.417-4.424L9.167 15.1l2.867-1.433 2.868 1.434zm3.333 2.966l-2.916 1.458v-3.7l2.916-1.459z"/></g></svg>